<svg width="25" height="25" viewBox="0 0 25 25" fill="none" xmlns="http://www.w3.org/2000/svg">
<mask id="mask0_391_132" style="mask-type:alpha" maskUnits="userSpaceOnUse" x="0" y="0" width="25" height="25">
<rect x="0.5" y="0.5" width="24" height="24" fill="#D9D9D9"/>
</mask>
<g mask="url(#mask0_391_132)">
<path d="M9.9 17L12.5 14.4L15.1 17L16.5 15.6L13.9 13L16.5 10.4L15.1 9L12.5 11.6L9.9 9L8.5 10.4L11.1 13L8.5 15.6L9.9 17ZM7.5 21.5C6.95 21.5 6.47917 21.3042 6.0875 20.9125C5.69583 20.5208 5.5 20.05 5.5 19.5V6.5H4.5V4.5H9.5V3.5H15.5V4.5H20.5V6.5H19.5V19.5C19.5 20.05 19.3042 20.5208 18.9125 20.9125C18.5208 21.3042 18.05 21.5 17.5 21.5H7.5ZM17.5 6.5H7.5V19.5H17.5V6.5Z" fill="white"/>
</g>
</svg>
