<svg width="24" height="25" viewBox="0 0 24 25" fill="none" xmlns="http://www.w3.org/2000/svg">
<mask id="mask0_391_120" style="mask-type:alpha" maskUnits="userSpaceOnUse" x="0" y="0" width="24" height="25">
<rect y="0.5" width="24" height="24" fill="#D9D9D9"/>
</mask>
<g mask="url(#mask0_391_120)">
<path d="M2 24.5V20.5H22V24.5H2ZM6 16.5H7.4L15.2 8.725L13.775 7.3L6 15.1V16.5ZM4 18.5V14.25L15.2 3.075C15.3833 2.89167 15.5958 2.75 15.8375 2.65C16.0792 2.55 16.3333 2.5 16.6 2.5C16.8667 2.5 17.125 2.55 17.375 2.65C17.625 2.75 17.85 2.9 18.05 3.1L19.425 4.5C19.625 4.68333 19.7708 4.9 19.8625 5.15C19.9542 5.4 20 5.65833 20 5.925C20 6.175 19.9542 6.42083 19.8625 6.6625C19.7708 6.90417 19.625 7.125 19.425 7.325L8.25 18.5H4Z" fill="#D80E0E"/>
</g>
</svg>
