<svg width="48" height="48" viewBox="0 0 48 48" fill="none" xmlns="http://www.w3.org/2000/svg">
<rect width="48" height="48" rx="4" fill="#D80E0E"/>
<path d="M17.8474 23.9304C17.8191 23.8605 17.805 23.609 17.805 23.1758C17.805 22.7427 17.805 22.1977 17.805 21.541C17.8191 20.8843 17.8332 20.1507 17.8474 19.3403C17.8757 18.5159 17.8969 17.6845 17.911 16.8462C17.9393 15.9938 17.9676 15.1694 17.9959 14.373C18.0241 13.5626 18.0454 12.843 18.0595 12.2142C18.0878 11.5854 18.109 11.0754 18.1231 10.6842C18.1373 10.279 18.1514 10.0624 18.1655 10.0344C18.1797 9.97855 18.2433 9.83882 18.3564 9.61525C18.4696 9.39169 18.5968 9.16114 18.7382 8.9236C18.8938 8.67209 19.0493 8.45551 19.2049 8.27387C19.3604 8.07825 19.4947 7.98742 19.6079 8.0014C19.6503 8.01537 19.6856 8.29483 19.7139 8.83976C19.7563 9.37073 19.7917 10.0554 19.82 10.8938C19.8624 11.7321 19.8907 12.6613 19.9048 13.6813C19.9331 14.6874 19.9543 15.6725 19.9684 16.6366C19.9967 17.5867 20.0179 18.453 20.0321 19.2355C20.0462 20.004 20.0604 20.5699 20.0745 20.9332C20.527 20.9751 20.9795 21.0101 21.432 21.038C21.8986 21.0659 22.3157 21.1009 22.6834 21.1428C23.051 21.1707 23.348 21.1987 23.5742 21.2266C23.8146 21.2546 23.9419 21.2755 23.956 21.2895C23.9984 21.3454 24.055 21.4781 24.1257 21.6877C24.2106 21.8833 24.2883 22.0999 24.359 22.3375C24.4297 22.561 24.4792 22.7706 24.5075 22.9662C24.5499 23.1619 24.5429 23.2806 24.4863 23.3225C22.8601 23.616 21.6017 23.8116 20.7108 23.9094C19.82 24.0072 19.1624 24.0561 18.7382 24.0561C18.2433 24.0561 17.9464 24.0142 17.8474 23.9304Z" fill="white"/>
<path d="M26.0983 17.2234C26.3245 17.1396 26.5791 17.0488 26.8619 16.951C27.1588 16.8392 27.4416 16.7414 27.7103 16.6575C27.979 16.5597 28.2193 16.4759 28.4315 16.406C28.6436 16.3362 28.7991 16.2803 28.8981 16.2383C28.8839 16.0846 28.8627 15.91 28.8345 15.7144C28.8203 15.5048 28.7991 15.3092 28.7708 15.1275C28.7425 14.9319 28.7072 14.7642 28.6648 14.6245C28.6223 14.4848 28.5799 14.4009 28.5375 14.373C28.4244 14.3311 28.2335 14.2961 27.9648 14.2682C27.7103 14.2263 27.4416 14.2333 27.1588 14.2891C26.8902 14.345 26.6427 14.4498 26.4165 14.6035C26.1902 14.7572 26.0629 15.0018 26.0347 15.3371C26.0064 15.5607 25.9993 15.8401 26.0135 16.1755C26.0276 16.5108 26.0559 16.8601 26.0983 17.2234ZM30.701 17.5588C30.6868 17.5867 30.5172 17.6426 30.1919 17.7264C29.8667 17.8103 29.4778 17.9011 29.0253 17.9989C28.5729 18.0828 28.0921 18.1736 27.583 18.2714C27.074 18.3552 26.6356 18.4251 26.268 18.481C26.3387 19.0399 26.4235 19.5429 26.5225 19.99C26.6215 20.4232 26.7063 20.6957 26.777 20.8074C26.8477 20.9053 26.9396 20.9961 27.0528 21.0799C27.1518 21.1498 27.2719 21.2196 27.4133 21.2895C27.5689 21.3454 27.7527 21.3873 27.9648 21.4153C28.1204 21.4572 28.2688 21.4013 28.4102 21.2476C28.5234 21.1079 28.6223 20.8633 28.7072 20.514C28.8062 20.1647 28.8557 19.6128 28.8557 18.8582C29.294 18.7884 29.6334 18.7465 29.8738 18.7325C30.1283 18.7185 30.3121 18.7185 30.4252 18.7325C30.5667 18.7465 30.6515 18.7674 30.6798 18.7954C30.6939 18.8373 30.6939 18.9421 30.6798 19.1098C30.6656 19.2774 30.6303 19.487 30.5737 19.7385C30.5313 19.9761 30.4747 20.2415 30.404 20.535C30.3475 20.8144 30.2768 21.0869 30.1919 21.3524C30.1071 21.6039 30.0152 21.8344 29.9162 22.044C29.8172 22.2397 29.7112 22.3794 29.598 22.4632C29.2587 22.7147 28.8345 22.8405 28.3254 22.8405C27.8163 22.8265 27.3144 22.7566 26.8195 22.6309C26.3245 22.4912 25.8791 22.3305 25.4832 22.1488C25.0873 21.9532 24.8398 21.7925 24.7408 21.6668C24.6701 21.5829 24.6065 21.3733 24.5499 21.038C24.4934 20.6887 24.4439 20.2695 24.4014 19.7804C24.3732 19.2914 24.352 18.7534 24.3378 18.1666C24.3237 17.5797 24.3307 17.0069 24.359 16.4479C24.4014 15.889 24.458 15.372 24.5287 14.897C24.6136 14.4219 24.7267 14.0376 24.8681 13.7442C25.0802 13.325 25.4266 12.9827 25.9074 12.7172C26.3882 12.4517 26.8972 12.2701 27.4346 12.1723C27.9719 12.0745 28.4809 12.0605 28.9617 12.1304C29.4566 12.2002 29.8243 12.3539 30.0647 12.5915C30.2061 12.7312 30.3333 13.0106 30.4465 13.4298C30.5596 13.835 30.6303 14.3311 30.6586 14.9179C30.6586 14.9738 30.6656 15.1345 30.6798 15.4C30.6939 15.6655 30.701 15.9519 30.701 16.2593C30.7151 16.5527 30.7222 16.8322 30.7222 17.0977C30.7222 17.3632 30.7151 17.5169 30.701 17.5588Z" fill="white"/>
<path d="M8.93896 31.1613C9.26418 31.3289 9.58941 31.5106 9.91464 31.7062C10.254 31.9018 10.5651 32.0905 10.8479 32.2721C11.1307 32.4398 11.364 32.6005 11.5479 32.7542C11.7458 32.8939 11.8731 33.0057 11.9296 33.0895C12.0003 33.2013 12.0357 33.376 12.0357 33.6135C12.0357 33.8371 12.0145 34.0886 11.9721 34.368C11.9438 34.6335 11.8943 34.899 11.8236 35.1645C11.7529 35.416 11.6751 35.6186 11.5903 35.7723C11.4913 35.9679 11.265 36.2194 10.9115 36.5268C10.5722 36.8342 10.1904 37.1416 9.76617 37.449C9.34196 37.7564 8.92481 38.0289 8.51474 38.2664C8.11881 38.504 7.8148 38.6507 7.60269 38.7066C7.44715 38.7485 7.21383 38.7904 6.90274 38.8323C6.60579 38.8742 6.29471 38.9092 5.96948 38.9371C5.64425 38.9651 5.3473 38.986 5.07863 39C4.82411 39 4.66856 38.986 4.612 38.9581C4.49888 38.8882 4.3999 38.7834 4.31505 38.6437C4.24435 38.504 4.209 38.3223 4.209 38.0988C4.23728 37.6097 4.29384 37.2744 4.37869 37.0927C4.40697 37.0508 4.44232 37.0298 4.48474 37.0298C4.52716 37.0159 4.59786 37.0089 4.69684 37.0089C4.79583 37.0089 4.92309 37.0089 5.07863 37.0089C5.23418 37.0089 5.43921 37.0019 5.69374 36.9879C5.62304 36.2753 5.55941 35.5976 5.50285 34.9549C5.44628 34.3121 5.39679 33.7462 5.35437 33.2572C5.29781 32.6843 5.25539 32.1464 5.22711 31.6433C5.19883 31.1543 5.15641 30.6093 5.09984 30.0085C5.05742 29.4915 5.00793 28.8907 4.95137 28.206C4.89481 27.5214 4.83118 26.7808 4.76048 25.9844C4.63321 25.9844 4.48474 25.9844 4.31505 25.9844C4.14537 25.9844 3.97569 25.9844 3.806 25.9844C3.65046 25.9704 3.51612 25.9564 3.403 25.9424C3.27574 25.9145 3.19797 25.8796 3.16968 25.8376C3.11312 25.7538 3.0707 25.6001 3.04242 25.3765C3.01414 25.139 3 24.9085 3 24.6849C3 24.4474 3.04242 24.2168 3.12726 23.9932C3.21211 23.7557 3.31109 23.602 3.42421 23.5321C3.45249 23.5182 3.56561 23.5182 3.76358 23.5321C3.96155 23.5321 4.20193 23.5531 4.48474 23.595C4.76755 23.623 5.07156 23.6649 5.39679 23.7208C5.73616 23.7627 6.05432 23.8116 6.35127 23.8675C6.64822 23.9094 6.90981 23.9513 7.13606 23.9932C7.3623 24.0352 7.51785 24.0631 7.60269 24.0771C7.74409 24.105 8.01276 24.1819 8.40869 24.3076C8.81876 24.4194 9.25711 24.5521 9.72375 24.7058C10.1904 24.8596 10.6358 25.0342 11.06 25.2298C11.4842 25.4115 11.7812 25.5931 11.9509 25.7748C12.0216 25.8446 12.0852 26.0402 12.1417 26.3616C12.2125 26.683 12.2619 27.0393 12.2902 27.4305C12.3326 27.8218 12.3468 28.1921 12.3326 28.5414C12.3326 28.8767 12.2973 29.1003 12.2266 29.2121C12.17 29.2959 11.9721 29.4426 11.6327 29.6522C11.2933 29.8618 10.9186 30.0784 10.5085 30.3019C10.0419 30.5535 9.51871 30.8399 8.93896 31.1613ZM7.32695 30.7421C7.51078 30.6583 7.75823 30.4906 8.06932 30.2391C8.39455 29.9876 8.71271 29.7081 9.0238 29.4007C9.34903 29.0793 9.62476 28.758 9.85101 28.4366C10.0914 28.1012 10.2116 27.8148 10.2116 27.5773C10.2116 27.5074 10.1338 27.4166 9.97827 27.3048C9.83687 27.193 9.6389 27.0812 9.38438 26.9694C9.12985 26.8577 8.82583 26.7459 8.47232 26.6341C8.13295 26.5083 7.7653 26.3966 7.36937 26.2987L7.32695 30.7421ZM7.30574 36.7574C7.70167 36.6735 8.07639 36.5408 8.4299 36.3591C8.78341 36.1775 9.0945 35.9819 9.36317 35.7723C9.63183 35.5487 9.84394 35.3252 9.99948 35.1016C10.155 34.878 10.2328 34.6754 10.2328 34.4938C10.2328 34.3121 10.1126 34.1095 9.87222 33.886C9.64597 33.6624 9.37024 33.4388 9.04501 33.2153C8.73392 32.9917 8.41576 32.7891 8.09053 32.6075C7.7653 32.4258 7.51078 32.2931 7.32695 32.2092L7.30574 36.7574Z" fill="white"/>
<path d="M17.911 27.9545C18.0241 28.0244 18.1302 28.1641 18.2292 28.3737C18.3423 28.5693 18.4413 28.7999 18.5261 29.0654C18.6251 29.3169 18.7029 29.5893 18.7594 29.8828C18.8301 30.1762 18.8867 30.4487 18.9291 30.7002C18.9857 30.9517 19.021 31.1683 19.0352 31.3499C19.0493 31.5176 19.0493 31.6224 19.0352 31.6643C19.0069 31.7202 18.9221 31.7761 18.7807 31.832C18.6534 31.8879 18.4625 31.9507 18.208 32.0206C17.9534 32.0905 17.5999 32.1673 17.1474 32.2511C17.1192 31.4826 17.0626 30.9028 16.9778 30.5115C16.8929 30.1063 16.801 29.8199 16.702 29.6522C16.5889 29.4566 16.4687 29.3588 16.3414 29.3588C16.2142 29.4147 16.1011 29.4845 16.0021 29.5684C15.9031 29.6382 15.8182 29.7151 15.7475 29.7989C15.6627 29.8967 15.5849 30.0015 15.5142 30.1133C15.4859 30.1552 15.4577 30.253 15.4294 30.4067C15.4011 30.5604 15.3728 30.791 15.3445 31.0984C15.3445 31.1962 15.3375 31.3988 15.3233 31.7062C15.3233 32.0136 15.3163 32.3699 15.3021 32.7751C15.3021 33.1803 15.2951 33.6065 15.2809 34.0536C15.2809 34.5008 15.2738 34.9199 15.2597 35.3112C15.2597 35.6885 15.2526 36.0098 15.2385 36.2753C15.2385 36.5408 15.2314 36.6945 15.2173 36.7364C15.189 36.8063 15.1183 36.9041 15.0052 37.0298C14.8921 37.1556 14.7648 37.2744 14.6234 37.3861C14.482 37.484 14.3476 37.5678 14.2204 37.6377C14.0931 37.6935 14.0083 37.6866 13.9659 37.6167C13.9234 37.5748 13.881 37.3931 13.8386 37.0718C13.7962 36.7504 13.7467 36.3591 13.6901 35.898C13.6477 35.423 13.5982 34.906 13.5416 34.3471C13.4851 33.7882 13.4356 33.2502 13.3932 32.7332C13.3508 32.2162 13.3154 31.7551 13.2871 31.3499C13.2588 30.9307 13.2376 30.6303 13.2235 30.4487C13.2093 30.1832 13.1952 29.8897 13.1811 29.5684C13.1669 29.247 13.1528 28.9466 13.1386 28.6671C13.1386 28.3737 13.1386 28.1222 13.1386 27.9126C13.1528 27.689 13.1811 27.5563 13.2235 27.5144C13.2518 27.4725 13.3437 27.4655 13.4992 27.4934C13.6689 27.5074 13.8457 27.5493 14.0295 27.6192C14.2275 27.6751 14.4113 27.7519 14.581 27.8497C14.7506 27.9475 14.8638 28.0384 14.9203 28.1222C14.9628 28.1921 15.0052 28.2969 15.0476 28.4366C15.3163 28.2969 15.5708 28.1711 15.8112 28.0593C16.0657 27.9336 16.3061 27.8427 16.5323 27.7868C16.7727 27.731 17.006 27.717 17.2323 27.7449C17.4585 27.7589 17.6848 27.8288 17.911 27.9545Z" fill="white"/>
<path d="M24.4863 28.1641C24.5146 28.206 24.557 28.4016 24.6136 28.751C24.6701 29.1003 24.7267 29.5334 24.7832 30.0504C24.8539 30.5674 24.9176 31.1263 24.9741 31.7272C25.0448 32.328 25.1085 32.9009 25.165 33.4458C25.2357 33.9908 25.2923 34.4798 25.3347 34.913C25.3771 35.3461 25.4125 35.6395 25.4408 35.7932C25.4832 36.0448 25.5327 36.3242 25.5892 36.6316C25.6458 36.925 25.6953 37.2115 25.7377 37.4909C25.7801 37.7564 25.8084 37.987 25.8226 38.1826C25.8508 38.3782 25.8438 38.497 25.8013 38.5389C25.7731 38.5808 25.6599 38.5948 25.462 38.5808C25.264 38.5529 25.0448 38.511 24.8044 38.4551C24.5782 38.3852 24.359 38.3083 24.1469 38.2245C23.949 38.1267 23.8217 38.0359 23.7651 37.952C23.7086 37.8822 23.652 37.7774 23.5954 37.6377C23.553 37.4979 23.4965 37.2534 23.4258 36.9041C23.2702 37.1137 23.1005 37.3372 22.9167 37.5748C22.747 37.7983 22.5773 38.0079 22.4077 38.2036C22.238 38.3852 22.0824 38.5319 21.941 38.6437C21.7996 38.7555 21.6936 38.8114 21.6229 38.8114C21.5097 38.8114 21.3401 38.6996 21.1138 38.476C20.8876 38.2385 20.6613 37.973 20.4351 37.6796C20.2088 37.3861 20.0038 37.1067 19.82 36.8412C19.6361 36.5757 19.5372 36.4011 19.523 36.3172C19.4947 36.2334 19.4806 36.0028 19.4806 35.6256C19.4947 35.2483 19.5089 34.8291 19.523 34.368C19.5513 33.8929 19.5796 33.4249 19.6079 32.9638C19.6361 32.4887 19.6644 32.1114 19.6927 31.832C19.721 31.5525 19.7493 31.2451 19.7775 30.9098C19.82 30.5604 19.8624 30.2391 19.9048 29.9456C19.9472 29.6382 19.9826 29.3728 20.0109 29.1492C20.0533 28.9256 20.0886 28.7929 20.1169 28.751C20.1452 28.709 20.223 28.6881 20.3502 28.6881C20.4916 28.6741 20.633 28.6811 20.7744 28.709C20.93 28.723 21.0714 28.758 21.1987 28.8138C21.3259 28.8558 21.4108 28.9117 21.4532 28.9815C21.4815 29.0374 21.4956 29.2191 21.4956 29.5265C21.5097 29.8199 21.5168 30.1832 21.5168 30.6163C21.5168 31.0355 21.5168 31.4966 21.5168 31.9996C21.5168 32.4887 21.5097 32.9498 21.4956 33.3829C21.4956 33.8021 21.4885 34.1654 21.4744 34.4728C21.4744 34.7662 21.4744 34.9409 21.4744 34.9968C21.4744 35.1086 21.538 35.3252 21.6653 35.6465C21.8067 35.9679 21.9481 36.2753 22.0895 36.5687L23.1924 35.2693C23.1783 35.0178 23.1642 34.6964 23.15 34.3051C23.15 33.9139 23.143 33.5017 23.1288 33.0686C23.1147 32.6354 23.1005 32.1953 23.0864 31.7481C23.0723 31.301 23.0652 30.8958 23.0652 30.5325C23.0652 30.1692 23.0652 29.8688 23.0652 29.6313C23.0652 29.3937 23.0723 29.254 23.0864 29.2121C23.1288 29.1282 23.2137 29.0165 23.3409 28.8767C23.4682 28.737 23.6096 28.6043 23.7651 28.4785C23.9207 28.3527 24.0621 28.2549 24.1893 28.1851C24.3307 28.1152 24.4297 28.1082 24.4863 28.1641Z" fill="white"/>
<path d="M28.8345 30.3648C28.8627 30.4347 28.8769 30.6583 28.8769 31.0355C28.891 31.3988 28.891 31.8459 28.8769 32.3769C28.8769 32.8939 28.8627 33.4528 28.8345 34.0536C28.8062 34.6405 28.7708 35.1994 28.7284 35.7304C28.7001 36.2474 28.6648 36.6945 28.6223 37.0718C28.5799 37.435 28.5375 37.6516 28.4951 37.7215C28.3678 37.9171 28.1769 38.0429 27.9224 38.0988C27.6679 38.1407 27.484 38.1477 27.3709 38.1197C27.3144 38.1197 27.2507 37.959 27.18 37.6377C27.1235 37.3163 27.0669 36.9111 27.0103 36.422C26.9538 35.933 26.9043 35.402 26.8619 34.8291C26.8195 34.2562 26.7841 33.7113 26.7558 33.1943C26.7275 32.6633 26.7134 32.2022 26.7134 31.811C26.7134 31.4198 26.7275 31.1683 26.7558 31.0565C26.7982 30.8748 26.9184 30.7141 27.1164 30.5744C27.3285 30.4347 27.5477 30.3299 27.7739 30.26C28.0143 30.1902 28.2335 30.1622 28.4315 30.1762C28.6436 30.1762 28.7779 30.2391 28.8345 30.3648ZM28.9405 26.9694C28.9971 27.0812 29.0183 27.2349 29.0041 27.4305C29.0041 27.6262 28.9829 27.8288 28.9405 28.0384C28.8981 28.2479 28.8415 28.4506 28.7708 28.6462C28.7001 28.8418 28.6294 28.9955 28.5587 29.1073C28.4173 29.3029 28.2052 29.4286 27.9224 29.4845C27.6537 29.5265 27.4558 29.5334 27.3285 29.5055C27.2295 29.4915 27.1305 29.4286 27.0316 29.3169C26.9326 29.1911 26.8477 29.0444 26.777 28.8767C26.7063 28.6951 26.6568 28.4995 26.6286 28.2899C26.6003 28.0803 26.6073 27.8847 26.6498 27.703C26.6922 27.5214 26.8265 27.3607 27.0528 27.2209C27.279 27.0672 27.5194 26.9555 27.7739 26.8856C28.0285 26.8018 28.2688 26.7668 28.4951 26.7808C28.7213 26.7808 28.8698 26.8437 28.9405 26.9694Z" fill="white"/>
<path d="M36.5127 30.5954C36.5127 30.8189 36.4844 31.1403 36.4278 31.5595C36.3854 31.9787 36.3218 32.4398 36.2369 32.9428C36.1521 33.4318 36.0602 33.9419 35.9612 34.4728C35.8764 34.9898 35.7844 35.4649 35.6855 35.898C35.6006 36.3312 35.5228 36.6945 35.4521 36.9879C35.3956 37.2813 35.3602 37.442 35.3461 37.47C35.3178 37.5119 35.24 37.5398 35.1128 37.5538C34.9997 37.5538 34.8653 37.5398 34.7098 37.5119C34.5684 37.484 34.434 37.442 34.3068 37.3861C34.1937 37.3303 34.123 37.2604 34.0947 37.1766C34.0805 37.1207 34.0735 36.925 34.0735 36.5897C34.0876 36.2543 34.1017 35.8561 34.1159 35.395C34.1442 34.9199 34.1724 34.4169 34.2007 33.886C34.229 33.341 34.2573 32.838 34.2856 32.3769C34.328 31.9018 34.3563 31.4966 34.3704 31.1613C34.3987 30.8259 34.4128 30.6233 34.4128 30.5535C34.4128 30.3019 34.3845 30.0644 34.328 29.8408C34.2856 29.6033 34.229 29.4007 34.1583 29.233C34.0876 29.0654 34.0028 28.9396 33.9038 28.8558C33.8189 28.758 33.7412 28.723 33.6705 28.751C33.4866 28.7789 33.3311 28.8278 33.2038 28.8977C33.0766 28.9536 32.9705 29.0165 32.8857 29.0863C32.7867 29.1702 32.7089 29.268 32.6524 29.3797C32.6382 29.4077 32.6099 29.4915 32.5675 29.6313C32.5392 29.771 32.5251 29.9317 32.5251 30.1133C32.5251 30.1692 32.5251 30.3718 32.5251 30.7211C32.5251 31.0565 32.518 31.4617 32.5039 31.9368C32.5039 32.4118 32.4968 32.9288 32.4827 33.4877C32.4827 34.0327 32.4756 34.5427 32.4615 35.0178C32.4615 35.4789 32.4544 35.8771 32.4402 36.2124C32.4261 36.5478 32.412 36.7364 32.3978 36.7783C32.3695 36.8622 32.2988 36.9809 32.1857 37.1346C32.0726 37.2744 31.9453 37.4071 31.8039 37.5329C31.6625 37.6586 31.5282 37.7564 31.4009 37.8263C31.2737 37.8822 31.1888 37.8682 31.1464 37.7844C31.104 37.7425 31.0616 37.5398 31.0191 37.1766C30.9767 36.7993 30.9272 36.3452 30.8707 35.8142C30.8282 35.2693 30.7788 34.6824 30.7222 34.0536C30.6656 33.4109 30.6161 32.7961 30.5737 32.2092C30.5313 31.6224 30.4959 31.0914 30.4677 30.6163C30.4394 30.1413 30.4182 29.7989 30.404 29.5893C30.3899 29.2959 30.3758 28.9675 30.3616 28.6043C30.3475 28.227 30.3333 27.8777 30.3192 27.5563C30.3192 27.2209 30.3192 26.9345 30.3192 26.697C30.3333 26.4455 30.3616 26.2918 30.404 26.2359C30.4323 26.18 30.5242 26.166 30.6798 26.194C30.8495 26.2219 31.0262 26.2778 31.21 26.3616C31.408 26.4315 31.5918 26.5223 31.7615 26.6341C31.9312 26.7319 32.0443 26.8297 32.1009 26.9275C32.1292 27.0114 32.1645 27.1092 32.2069 27.2209C32.2494 27.3188 32.2847 27.4864 32.313 27.724C32.5534 27.5842 32.815 27.4585 33.0978 27.3467C33.3806 27.2209 33.6563 27.1301 33.925 27.0742C34.2078 27.0044 34.4765 26.9834 34.731 27.0114C34.9855 27.0253 35.2118 27.0952 35.4097 27.2209C35.537 27.3188 35.6643 27.4864 35.7915 27.724C35.9329 27.9615 36.0531 28.241 36.1521 28.5623C36.2652 28.8837 36.3501 29.226 36.4066 29.5893C36.4773 29.9387 36.5127 30.274 36.5127 30.5954Z" fill="white"/>
<path d="M39.3761 33.3201C39.6023 33.2362 39.8569 33.1454 40.1397 33.0476C40.4366 32.9358 40.7194 32.838 40.9881 32.7542C41.2568 32.6564 41.4972 32.5725 41.7093 32.5027C41.9214 32.4328 42.0769 32.3769 42.1759 32.335C42.1618 32.1813 42.1405 32.0066 42.1123 31.811C42.0981 31.6014 42.0769 31.4058 42.0486 31.2241C42.0203 31.0285 41.985 30.8609 41.9426 30.7211C41.9002 30.5814 41.8577 30.4976 41.8153 30.4696C41.7022 30.4277 41.5113 30.3928 41.2426 30.3648C40.9881 30.3229 40.7194 30.3299 40.4366 30.3858C40.168 30.4417 39.9205 30.5465 39.6943 30.7002C39.468 30.8539 39.3407 31.0984 39.3125 31.4337C39.2842 31.6573 39.2771 31.9368 39.2913 32.2721C39.3054 32.6075 39.3337 32.9568 39.3761 33.3201ZM43.9788 33.6554C43.9647 33.6834 43.795 33.7392 43.4697 33.8231C43.1445 33.9069 42.7556 33.9977 42.3032 34.0956C41.8507 34.1794 41.3699 34.2702 40.8608 34.368C40.3518 34.4519 39.9134 34.5217 39.5458 34.5776C39.6165 35.1365 39.7013 35.6395 39.8003 36.0867C39.8993 36.5198 39.9841 36.7923 40.0548 36.9041C40.1255 37.0019 40.2175 37.0927 40.3306 37.1766C40.4296 37.2464 40.5498 37.3163 40.6912 37.3861C40.8467 37.442 41.0305 37.484 41.2426 37.5119C41.3982 37.5538 41.5466 37.4979 41.6881 37.3442C41.8012 37.2045 41.9002 36.96 41.985 36.6107C42.084 36.2613 42.1335 35.7094 42.1335 34.9549C42.5718 34.885 42.9112 34.8431 43.1516 34.8291C43.4061 34.8152 43.5899 34.8152 43.7031 34.8291C43.8445 34.8431 43.9293 34.8641 43.9576 34.892C43.9717 34.9339 43.9717 35.0387 43.9576 35.2064C43.9434 35.3741 43.9081 35.5837 43.8515 35.8352C43.8091 36.0727 43.7525 36.3382 43.6818 36.6316C43.6253 36.9111 43.5546 37.1835 43.4697 37.449C43.3849 37.7005 43.293 37.9311 43.194 38.1407C43.095 38.3363 42.989 38.476 42.8758 38.5599C42.5365 38.8114 42.1123 38.9371 41.6032 38.9371C41.0942 38.9231 40.5922 38.8533 40.0973 38.7275C39.6023 38.5878 39.1569 38.4271 38.761 38.2455C38.3651 38.0499 38.1176 37.8892 38.0186 37.7634C37.9479 37.6796 37.8843 37.47 37.8277 37.1346C37.7712 36.7853 37.7217 36.3661 37.6793 35.8771C37.651 35.388 37.6298 34.8501 37.6156 34.2632C37.6015 33.6764 37.6086 33.1035 37.6368 32.5446C37.6793 31.9857 37.7358 31.4687 37.8065 30.9936C37.8914 30.5185 38.0045 30.1343 38.1459 29.8408C38.358 29.4217 38.7044 29.0793 39.1852 28.8138C39.666 28.5484 40.175 28.3667 40.7124 28.2689C41.2497 28.1711 41.7588 28.1571 42.2395 28.227C42.7344 28.2969 43.1021 28.4506 43.3425 28.6881C43.4839 28.8278 43.6111 29.1073 43.7243 29.5265C43.8374 29.9317 43.9081 30.4277 43.9364 31.0146C43.9364 31.0704 43.9434 31.2311 43.9576 31.4966C43.9717 31.7621 43.9788 32.0485 43.9788 32.3559C43.9929 32.6494 44 32.9288 44 33.1943C44 33.4598 43.9929 33.6135 43.9788 33.6554Z" fill="white"/>
</svg>
