<svg width="33" height="32" viewBox="0 0 33 32" fill="none" xmlns="http://www.w3.org/2000/svg">
<rect x="1" y="0.5" width="31" height="31" rx="3.5" stroke="#D80E0E"/>
<mask id="mask0_308_1679" style="mask-type:alpha" maskUnits="userSpaceOnUse" x="4" y="4" width="25" height="24">
<rect x="4.5" y="4" width="24" height="24" fill="#D9D9D9"/>
</mask>
<g mask="url(#mask0_308_1679)">
<path d="M9.5 23H10.925L20.7 13.225L19.275 11.8L9.5 21.575V23ZM7.5 25V20.75L20.7 7.575C20.9 7.39167 21.1208 7.25 21.3625 7.15C21.6042 7.05 21.8583 7 22.125 7C22.3917 7 22.65 7.05 22.9 7.15C23.15 7.25 23.3667 7.4 23.55 7.6L24.925 9C25.125 9.18333 25.2708 9.4 25.3625 9.65C25.4542 9.9 25.5 10.15 25.5 10.4C25.5 10.6667 25.4542 10.9208 25.3625 11.1625C25.2708 11.4042 25.125 11.625 24.925 11.825L11.75 25H7.5ZM19.975 12.525L19.275 11.8L20.7 13.225L19.975 12.525Z" fill="#D80E0E"/>
</g>
</svg>
