<svg width="342" height="99" viewBox="0 0 342 99" fill="none" xmlns="http://www.w3.org/2000/svg">
<path d="M0.25 98.2514C0.0833333 97.8355 0 96.3384 0 93.7599C0 91.1815 0 87.9376 0 84.0284C0.0833333 80.1191 0.166667 75.7524 0.25 70.9282C0.416667 66.0208 0.541667 61.0718 0.625 56.0813C0.791667 51.0076 0.958333 46.1002 1.125 41.3592C1.29167 36.535 1.41667 32.2514 1.5 28.5085C1.66667 24.7656 1.79167 21.7297 1.875 19.4008C1.95833 16.9887 2.04167 15.6994 2.125 15.5331C2.20833 15.2004 2.58333 14.3686 3.25 13.0378C3.91667 11.707 4.66667 10.3346 5.5 8.9206C6.41667 7.42344 7.33333 6.13422 8.25 5.05293C9.16667 3.88847 9.95833 3.34783 10.625 3.431C10.875 3.51418 11.0833 5.17769 11.25 8.42155C11.5 11.5822 11.7083 15.6578 11.875 20.6484C12.125 25.6389 12.2917 31.1701 12.375 37.242C12.5417 43.2306 12.6667 49.0945 12.75 54.8336C12.9167 60.4896 13.0417 65.6465 13.125 70.3043C13.2083 74.879 13.2917 78.2476 13.375 80.4102C16.0417 80.6597 18.7083 80.8677 21.375 81.034C24.125 81.2004 26.5833 81.4083 28.75 81.6578C30.9167 81.8242 32.6667 81.9905 34 82.1569C35.4167 82.3232 36.1667 82.448 36.25 82.5312C36.5 82.8639 36.8333 83.6541 37.25 84.9017C37.75 86.0662 38.2083 87.3554 38.625 88.7694C39.0417 90.1002 39.3333 91.3478 39.5 92.5123C39.75 93.6767 39.7083 94.3837 39.375 94.6333C29.7917 96.38 22.375 97.5444 17.125 98.1266C11.875 98.7089 8 99 5.5 99C2.58333 99 0.833333 98.7505 0.25 98.2514Z" fill="#D80E0E"/>
<path d="M48.875 58.327C50.2083 57.828 51.7083 57.2873 53.375 56.7051C55.125 56.0397 56.7917 55.4575 58.375 54.9584C59.9583 54.3762 61.375 53.8771 62.625 53.4612C63.875 53.0454 64.7917 52.7127 65.375 52.4631C65.2917 51.5482 65.1667 50.5085 65 49.344C64.9167 48.0964 64.7917 46.9319 64.625 45.8507C64.4583 44.6862 64.25 43.6881 64 42.8563C63.75 42.0246 63.5 41.5255 63.25 41.3592C62.5833 41.1096 61.4583 40.9017 59.875 40.7353C58.375 40.4858 56.7917 40.5274 55.125 40.8601C53.5417 41.1928 52.0833 41.8166 50.75 42.7316C49.4167 43.6465 48.6667 45.1021 48.5 47.0983C48.3333 48.4291 48.2917 50.0926 48.375 52.0888C48.4583 54.0851 48.625 56.1645 48.875 58.327ZM76 60.3232C75.9167 60.4896 74.9167 60.8223 73 61.3214C71.0833 61.8204 68.7917 62.3611 66.125 62.9433C63.4583 63.4423 60.625 63.983 57.625 64.5652C54.625 65.0643 52.0417 65.4801 49.875 65.8129C50.2917 69.1399 50.7917 72.1342 51.375 74.7958C51.9583 77.3743 52.4583 78.9962 52.875 79.6616C53.2917 80.2439 53.8333 80.7845 54.5 81.2836C55.0833 81.6994 55.7917 82.1153 56.625 82.5312C57.5417 82.8639 58.625 83.1134 59.875 83.2798C60.7917 83.5293 61.6667 83.1966 62.5 82.2817C63.1667 81.4499 63.75 79.9943 64.25 77.9149C64.8333 75.8355 65.125 72.5501 65.125 68.0586C67.7083 67.6427 69.7083 67.3932 71.125 67.31C72.625 67.2268 73.7083 67.2268 74.375 67.31C75.2083 67.3932 75.7083 67.518 75.875 67.6843C75.9583 67.9338 75.9583 68.5577 75.875 69.5558C75.7917 70.5539 75.5833 71.8015 75.25 73.2987C75 74.7127 74.6667 76.293 74.25 78.0397C73.9167 79.7032 73.5 81.3251 73 82.9055C72.5 84.4026 71.9583 85.775 71.375 87.0227C70.7917 88.1871 70.1667 89.0189 69.5 89.518C67.5 91.0151 65 91.7637 62 91.7637C59 91.6805 56.0417 91.2646 53.125 90.5161C50.2083 89.6843 47.5833 88.7278 45.25 87.6465C42.9167 86.482 41.4583 85.5255 40.875 84.7769C40.4583 84.2779 40.0833 83.0302 39.75 81.034C39.4167 78.9546 39.125 76.4594 38.875 73.5482C38.7083 70.637 38.5833 67.4348 38.5 63.9414C38.4167 60.448 38.4583 57.0378 38.625 53.7108C38.875 50.3837 39.2083 47.3062 39.625 44.4783C40.125 41.6503 40.7917 39.3629 41.625 37.6163C42.875 35.121 44.9167 33.0832 47.75 31.5028C50.5833 29.9225 53.5833 28.8412 56.75 28.259C59.9167 27.6767 62.9167 27.5936 65.75 28.0095C68.6667 28.4253 70.8333 29.3403 72.25 30.7543C73.0833 31.586 73.8333 33.2495 74.5 35.7448C75.1667 38.1569 75.5833 41.1096 75.75 44.603C75.75 44.9357 75.7917 45.8922 75.875 47.4726C75.9583 49.0529 76 50.758 76 52.5879C76.0833 54.3346 76.125 55.9981 76.125 57.5784C76.125 59.1588 76.0833 60.0737 76 60.3232Z" fill="#D80E0E"/>
<path d="M135.375 45.4764C137.292 46.4745 139.208 47.5558 141.125 48.7202C143.125 49.8847 144.958 51.0076 146.625 52.0888C148.292 53.087 149.667 54.0435 150.75 54.9584C151.917 55.7902 152.667 56.4556 153 56.9546C153.417 57.62 153.625 58.6597 153.625 60.0737C153.625 61.4045 153.5 62.9017 153.25 64.5652C153.083 66.1456 152.792 67.7259 152.375 69.3062C151.958 70.8034 151.5 72.0095 151 72.9244C150.417 74.0888 149.083 75.586 147 77.4159C145 79.2457 142.75 81.0756 140.25 82.9055C137.75 84.7353 135.292 86.3573 132.875 87.7713C130.542 89.1852 128.75 90.0586 127.5 90.3913C126.583 90.6408 125.208 90.8904 123.375 91.1399C121.625 91.3894 119.792 91.5974 117.875 91.7637C115.958 91.9301 114.208 92.0548 112.625 92.138C111.125 92.138 110.208 92.0548 109.875 91.8885C109.208 91.4726 108.625 90.8488 108.125 90.017C107.708 89.1852 107.5 88.104 107.5 86.7732C107.667 83.862 108 81.8658 108.5 80.7845C108.667 80.535 108.875 80.4102 109.125 80.4102C109.375 80.327 109.792 80.2854 110.375 80.2854C110.958 80.2854 111.708 80.2854 112.625 80.2854C113.542 80.2854 114.75 80.2439 116.25 80.1607C115.833 75.9187 115.458 71.8847 115.125 68.0586C114.792 64.2325 114.5 60.8639 114.25 57.9527C113.917 54.5425 113.667 51.3403 113.5 48.3459C113.333 45.4348 113.083 42.1909 112.75 38.6144C112.5 35.5369 112.208 31.9603 111.875 27.8847C111.542 23.8091 111.167 19.4008 110.75 14.6597C110 14.6597 109.125 14.6597 108.125 14.6597C107.125 14.6597 106.125 14.6597 105.125 14.6597C104.208 14.5766 103.417 14.4934 102.75 14.4102C102 14.2439 101.542 14.0359 101.375 13.7864C101.042 13.2873 100.792 12.3724 100.625 11.0416C100.458 9.6276 100.375 8.2552 100.375 6.92439C100.375 5.5104 100.625 4.138 101.125 2.80718C101.625 1.39319 102.208 0.478261 102.875 0.0623818C103.042 -0.020794 103.708 -0.020794 104.875 0.0623818C106.042 0.0623818 107.458 0.187146 109.125 0.436673C110.792 0.603025 112.583 0.852552 114.5 1.18526C116.5 1.43478 118.375 1.7259 120.125 2.0586C121.875 2.30813 123.417 2.55766 124.75 2.80718C126.083 3.05671 127 3.22306 127.5 3.30624C128.333 3.47259 129.917 3.93006 132.25 4.67864C134.667 5.34405 137.25 6.13422 140 7.04915C142.75 7.96408 145.375 9.00378 147.875 10.1682C150.375 11.2495 152.125 12.3308 153.125 13.4121C153.542 13.828 153.917 14.9924 154.25 16.9055C154.667 18.8185 154.958 20.9395 155.125 23.2684C155.375 25.5974 155.458 27.8015 155.375 29.8809C155.375 31.8771 155.167 33.2079 154.75 33.8733C154.417 34.3724 153.25 35.2457 151.25 36.4934C149.25 37.741 147.042 39.0302 144.625 40.3611C141.875 41.8582 138.792 43.5633 135.375 45.4764ZM125.875 42.9811C126.958 42.482 128.417 41.4839 130.25 39.9868C132.167 38.4896 134.042 36.8261 135.875 34.9962C137.792 33.0832 139.417 31.1701 140.75 29.2571C142.167 27.2609 142.875 25.5558 142.875 24.1418C142.875 23.7259 142.417 23.1853 141.5 22.5198C140.667 21.8544 139.5 21.189 138 20.5236C136.5 19.8582 134.708 19.1928 132.625 18.5274C130.625 17.7788 128.458 17.1134 126.125 16.5312L125.875 42.9811ZM125.75 78.7883C128.083 78.2892 130.292 77.4991 132.375 76.4178C134.458 75.3365 136.292 74.172 137.875 72.9244C139.458 71.5936 140.708 70.2628 141.625 68.9319C142.542 67.6011 143 66.3951 143 65.3138C143 64.2325 142.292 63.0265 140.875 61.6957C139.542 60.3648 137.917 59.034 136 57.7032C134.167 56.3724 132.292 55.1664 130.375 54.0851C128.458 53.0038 126.958 52.2136 125.875 51.7146L125.75 78.7883Z" fill="#D80E0E"/>
<path d="M188.25 26.3875C188.917 26.8034 189.542 27.6352 190.125 28.8828C190.792 30.0473 191.375 31.4197 191.875 33C192.458 34.4972 192.917 36.1191 193.25 37.8658C193.667 39.6125 194 41.2344 194.25 42.7316C194.583 44.2287 194.792 45.518 194.875 46.5992C194.958 47.5974 194.958 48.2212 194.875 48.4707C194.708 48.8034 194.208 49.1361 193.375 49.4688C192.625 49.8015 191.5 50.1758 190 50.5917C188.5 51.0076 186.417 51.465 183.75 51.9641C183.583 47.3894 183.25 43.9376 182.75 41.6087C182.25 39.1966 181.708 37.4915 181.125 36.4934C180.458 35.3289 179.75 34.7467 179 34.7467C178.25 35.0794 177.583 35.4953 177 35.9943C176.417 36.4102 175.917 36.8677 175.5 37.3667C175 37.949 174.542 38.5728 174.125 39.2382C173.958 39.4877 173.792 40.0699 173.625 40.9849C173.458 41.8998 173.292 43.2722 173.125 45.1021C173.125 45.6843 173.083 46.8904 173 48.7202C173 50.5501 172.958 52.6711 172.875 55.0832C172.875 57.4953 172.833 60.0321 172.75 62.6938C172.75 65.3554 172.708 67.8507 172.625 70.1796C172.625 72.4253 172.583 74.3384 172.5 75.9187C172.5 77.4991 172.458 78.414 172.375 78.6635C172.208 79.0794 171.792 79.6616 171.125 80.4102C170.458 81.1588 169.708 81.8658 168.875 82.5312C168.042 83.1134 167.25 83.6125 166.5 84.0284C165.75 84.3611 165.25 84.3195 165 83.9036C164.75 83.6541 164.5 82.5728 164.25 80.6597C164 78.7467 163.708 76.4178 163.375 73.673C163.125 70.845 162.833 67.7675 162.5 64.4405C162.167 61.1134 161.875 57.9112 161.625 54.8336C161.375 51.7561 161.167 49.0113 161 46.5992C160.833 44.104 160.708 42.3157 160.625 41.2344C160.542 39.6541 160.458 37.9074 160.375 35.9943C160.292 34.0813 160.208 32.293 160.125 30.6295C160.125 28.8828 160.125 27.3856 160.125 26.138C160.208 24.8072 160.375 24.017 160.625 23.7675C160.792 23.518 161.333 23.4764 162.25 23.6427C163.25 23.7259 164.292 23.9754 165.375 24.3913C166.542 24.724 167.625 25.1815 168.625 25.7637C169.625 26.3459 170.292 26.8866 170.625 27.3856C170.875 27.8015 171.125 28.4253 171.375 29.2571C172.958 28.4253 174.458 27.6767 175.875 27.0113C177.375 26.2628 178.792 25.7221 180.125 25.3894C181.542 25.0567 182.917 24.9735 184.25 25.1399C185.583 25.2231 186.917 25.6389 188.25 26.3875Z" fill="#D80E0E"/>
<path d="M227 27.6352C227.167 27.8847 227.417 29.0491 227.75 31.1285C228.083 33.2079 228.417 35.7864 228.75 38.8639C229.167 41.9414 229.542 45.2684 229.875 48.845C230.292 52.4215 230.667 55.8318 231 59.0756C231.417 62.3195 231.75 65.2306 232 67.8091C232.25 70.3875 232.458 72.1342 232.625 73.0491C232.875 74.5463 233.167 76.2098 233.5 78.0397C233.833 79.7864 234.125 81.4915 234.375 83.155C234.625 84.7353 234.792 86.1077 234.875 87.2722C235.042 88.4367 235 89.1437 234.75 89.3932C234.583 89.6427 233.917 89.7259 232.75 89.6427C231.583 89.4764 230.292 89.2268 228.875 88.8941C227.542 88.4783 226.25 88.0208 225 87.5217C223.833 86.9395 223.083 86.3989 222.75 85.8998C222.417 85.4839 222.083 84.8601 221.75 84.0284C221.5 83.1966 221.167 81.741 220.75 79.6616C219.833 80.9093 218.833 82.2401 217.75 83.6541C216.75 84.9849 215.75 86.2325 214.75 87.397C213.75 88.4783 212.833 89.3516 212 90.017C211.167 90.6824 210.542 91.0151 210.125 91.0151C209.458 91.0151 208.458 90.3497 207.125 89.0189C205.792 87.6049 204.458 86.0246 203.125 84.2779C201.792 82.5312 200.583 80.8677 199.5 79.2873C198.417 77.707 197.833 76.6673 197.75 76.1682C197.583 75.6692 197.5 74.2968 197.5 72.051C197.583 69.8053 197.667 67.31 197.75 64.5652C197.917 61.7372 198.083 58.9508 198.25 56.206C198.417 53.3781 198.583 51.1323 198.75 49.4688C198.917 47.8053 199.083 45.9754 199.25 43.9792C199.5 41.8998 199.75 39.9868 200 38.2401C200.25 36.4102 200.458 34.8299 200.625 33.4991C200.875 32.1682 201.083 31.3781 201.25 31.1285C201.417 30.879 201.875 30.7543 202.625 30.7543C203.458 30.6711 204.292 30.7127 205.125 30.879C206.042 30.9622 206.875 31.1701 207.625 31.5028C208.375 31.7524 208.875 32.0851 209.125 32.5009C209.292 32.8336 209.375 33.9149 209.375 35.7448C209.458 37.4915 209.5 39.6541 209.5 42.2325C209.5 44.7278 209.5 47.4726 209.5 50.4669C209.5 53.3781 209.458 56.1229 209.375 58.7013C209.375 61.1966 209.333 63.3592 209.25 65.189C209.25 66.9357 209.25 67.9754 209.25 68.3081C209.25 68.9735 209.625 70.2628 210.375 72.1758C211.208 74.0888 212.042 75.9187 212.875 77.6654L219.375 69.9301C219.292 68.4329 219.208 66.5198 219.125 64.1909C219.125 61.862 219.083 59.4083 219 56.8299C218.917 54.2514 218.833 51.6314 218.75 48.9698C218.667 46.3081 218.625 43.896 218.625 41.7335C218.625 39.5709 218.625 37.7826 218.625 36.3686C218.625 34.9546 218.667 34.1229 218.75 33.8733C219 33.3743 219.5 32.7089 220.25 31.8771C221 31.0454 221.833 30.2552 222.75 29.5066C223.667 28.758 224.5 28.1758 225.25 27.7599C226.083 27.344 226.667 27.3025 227 27.6352Z" fill="#D80E0E"/>
<path d="M252.625 40.7353C252.792 41.1512 252.875 42.482 252.875 44.7278C252.958 46.8904 252.958 49.552 252.875 52.7127C252.875 55.7902 252.792 59.1172 252.625 62.6938C252.458 66.1871 252.25 69.5142 252 72.6749C251.833 75.7524 251.625 78.414 251.375 80.6597C251.125 82.8223 250.875 84.1115 250.625 84.5274C249.875 85.6919 248.75 86.4405 247.25 86.7732C245.75 87.0227 244.667 87.0643 244 86.8979C243.667 86.8979 243.292 85.9414 242.875 84.0284C242.542 82.1153 242.208 79.7032 241.875 76.7921C241.542 73.8809 241.25 70.7202 241 67.31C240.75 63.8998 240.542 60.656 240.375 57.5784C240.208 54.4178 240.125 51.673 240.125 49.344C240.125 47.0151 240.208 45.518 240.375 44.8526C240.625 43.7713 241.333 42.8147 242.5 41.983C243.75 41.1512 245.042 40.5274 246.375 40.1115C247.792 39.6957 249.083 39.5293 250.25 39.6125C251.5 39.6125 252.292 39.9868 252.625 40.7353ZM253.25 20.5236C253.583 21.189 253.708 22.104 253.625 23.2684C253.625 24.4329 253.5 25.6389 253.25 26.8866C253 28.1342 252.667 29.3403 252.25 30.5047C251.833 31.6692 251.417 32.5841 251 33.2495C250.167 34.414 248.917 35.1626 247.25 35.4953C245.667 35.7448 244.5 35.7864 243.75 35.62C243.167 35.5369 242.583 35.1626 242 34.4972C241.417 33.7486 240.917 32.8752 240.5 31.8771C240.083 30.7958 239.792 29.6314 239.625 28.3837C239.458 27.1361 239.5 25.9716 239.75 24.8904C240 23.8091 240.792 22.8526 242.125 22.0208C243.458 21.1059 244.875 20.4405 246.375 20.0246C247.875 19.5255 249.292 19.3176 250.625 19.4008C251.958 19.4008 252.833 19.775 253.25 20.5236Z" fill="#D80E0E"/>
<path d="M297.875 42.1077C297.875 43.4386 297.708 45.3516 297.375 47.8469C297.125 50.3422 296.75 53.087 296.25 56.0813C295.75 58.9924 295.208 62.0284 294.625 65.189C294.125 68.2665 293.583 71.0945 293 73.673C292.5 76.2514 292.042 78.414 291.625 80.1607C291.292 81.9074 291.083 82.8639 291 83.0302C290.833 83.2798 290.375 83.4461 289.625 83.5293C288.958 83.5293 288.167 83.4461 287.25 83.2798C286.417 83.1134 285.625 82.8639 284.875 82.5312C284.208 82.1985 283.792 81.7826 283.625 81.2836C283.542 80.9509 283.5 79.7864 283.5 77.7902C283.583 75.7939 283.667 73.4234 283.75 70.6786C283.917 67.8507 284.083 64.8563 284.25 61.6957C284.417 58.4518 284.583 55.4575 284.75 52.7127C285 49.8847 285.167 47.4726 285.25 45.4764C285.417 43.4801 285.5 42.2741 285.5 41.8582C285.5 40.3611 285.333 38.9471 285 37.6163C284.75 36.2023 284.417 34.9962 284 33.9981C283.583 33 283.083 32.2514 282.5 31.7524C282 31.1701 281.542 30.9622 281.125 31.1285C280.042 31.2949 279.125 31.586 278.375 32.0019C277.625 32.3346 277 32.7089 276.5 33.1248C275.917 33.6238 275.458 34.206 275.125 34.8715C275.042 35.0378 274.875 35.5369 274.625 36.3686C274.458 37.2004 274.375 38.1569 274.375 39.2382C274.375 39.5709 274.375 40.7769 274.375 42.8563C274.375 44.8526 274.333 47.2646 274.25 50.0926C274.25 52.9206 274.208 55.9981 274.125 59.3251C274.125 62.569 274.083 65.6049 274 68.4329C274 71.1777 273.958 73.5482 273.875 75.5444C273.792 77.5406 273.708 78.6635 273.625 78.913C273.458 79.4121 273.042 80.1191 272.375 81.034C271.708 81.8658 270.958 82.656 270.125 83.4045C269.292 84.1531 268.5 84.7353 267.75 85.1512C267 85.4839 266.5 85.4008 266.25 84.9017C266 84.6522 265.75 83.4461 265.5 81.2836C265.25 79.0378 264.958 76.3346 264.625 73.1739C264.375 69.9301 264.083 66.4367 263.75 62.6938C263.417 58.8677 263.125 55.2079 262.875 51.7146C262.625 48.2212 262.417 45.0605 262.25 42.2325C262.083 39.4045 261.958 37.3667 261.875 36.1191C261.792 34.3724 261.708 32.4178 261.625 30.2552C261.542 28.0095 261.458 25.9301 261.375 24.017C261.375 22.0208 261.375 20.3157 261.375 18.9017C261.458 17.4045 261.625 16.4896 261.875 16.1569C262.042 15.8242 262.583 15.741 263.5 15.9074C264.5 16.0737 265.542 16.4064 266.625 16.9055C267.792 17.3214 268.875 17.862 269.875 18.5274C270.875 19.1096 271.542 19.6919 271.875 20.2741C272.042 20.7732 272.25 21.3554 272.5 22.0208C272.75 22.603 272.958 23.6011 273.125 25.0151C274.542 24.1834 276.083 23.4348 277.75 22.7694C279.417 22.0208 281.042 21.4802 282.625 21.1474C284.292 20.7316 285.875 20.6068 287.375 20.7732C288.875 20.8563 290.208 21.2722 291.375 22.0208C292.125 22.603 292.875 23.6011 293.625 25.0151C294.458 26.4291 295.167 28.0926 295.75 30.0057C296.417 31.9187 296.917 33.9565 297.25 36.1191C297.667 38.1985 297.875 40.1947 297.875 42.1077Z" fill="#D80E0E"/>
<path d="M314.75 58.327C316.083 57.828 317.583 57.2873 319.25 56.7051C321 56.0397 322.667 55.4575 324.25 54.9584C325.833 54.3762 327.25 53.8771 328.5 53.4612C329.75 53.0454 330.667 52.7127 331.25 52.4631C331.167 51.5482 331.042 50.5085 330.875 49.344C330.792 48.0964 330.667 46.9319 330.5 45.8507C330.333 44.6862 330.125 43.6881 329.875 42.8563C329.625 42.0246 329.375 41.5255 329.125 41.3592C328.458 41.1096 327.333 40.9017 325.75 40.7353C324.25 40.4858 322.667 40.5274 321 40.8601C319.417 41.1928 317.958 41.8166 316.625 42.7316C315.292 43.6465 314.542 45.1021 314.375 47.0983C314.208 48.4291 314.167 50.0926 314.25 52.0888C314.333 54.0851 314.5 56.1645 314.75 58.327ZM341.875 60.3232C341.792 60.4896 340.792 60.8223 338.875 61.3214C336.958 61.8204 334.667 62.3611 332 62.9433C329.333 63.4423 326.5 63.983 323.5 64.5652C320.5 65.0643 317.917 65.4801 315.75 65.8129C316.167 69.1399 316.667 72.1342 317.25 74.7958C317.833 77.3743 318.333 78.9962 318.75 79.6616C319.167 80.2439 319.708 80.7845 320.375 81.2836C320.958 81.6994 321.667 82.1153 322.5 82.5312C323.417 82.8639 324.5 83.1134 325.75 83.2798C326.667 83.5293 327.542 83.1966 328.375 82.2817C329.042 81.4499 329.625 79.9943 330.125 77.9149C330.708 75.8355 331 72.5501 331 68.0586C333.583 67.6427 335.583 67.3932 337 67.31C338.5 67.2268 339.583 67.2268 340.25 67.31C341.083 67.3932 341.583 67.518 341.75 67.6843C341.833 67.9338 341.833 68.5577 341.75 69.5558C341.667 70.5539 341.458 71.8015 341.125 73.2987C340.875 74.7127 340.542 76.293 340.125 78.0397C339.792 79.7032 339.375 81.3251 338.875 82.9055C338.375 84.4026 337.833 85.775 337.25 87.0227C336.667 88.1871 336.042 89.0189 335.375 89.518C333.375 91.0151 330.875 91.7637 327.875 91.7637C324.875 91.6805 321.917 91.2646 319 90.5161C316.083 89.6843 313.458 88.7278 311.125 87.6465C308.792 86.482 307.333 85.5255 306.75 84.7769C306.333 84.2779 305.958 83.0302 305.625 81.034C305.292 78.9546 305 76.4594 304.75 73.5482C304.583 70.637 304.458 67.4348 304.375 63.9414C304.292 60.448 304.333 57.0378 304.5 53.7108C304.75 50.3837 305.083 47.3062 305.5 44.4783C306 41.6503 306.667 39.3629 307.5 37.6163C308.75 35.121 310.792 33.0832 313.625 31.5028C316.458 29.9225 319.458 28.8412 322.625 28.259C325.792 27.6767 328.792 27.5936 331.625 28.0095C334.542 28.4253 336.708 29.3403 338.125 30.7543C338.958 31.586 339.708 33.2495 340.375 35.7448C341.042 38.1569 341.458 41.1096 341.625 44.603C341.625 44.9357 341.667 45.8922 341.75 47.4726C341.833 49.0529 341.875 50.758 341.875 52.5879C341.958 54.3346 342 55.9981 342 57.5784C342 59.1588 341.958 60.0737 341.875 60.3232Z" fill="#D80E0E"/>
</svg>
