<svg width="32" height="32" viewBox="0 0 32 32" fill="none" xmlns="http://www.w3.org/2000/svg">
<path d="M22.6667 24H28V21.3333H22.6667V18.6667L18.6667 22.6667L22.6667 26.6667V24ZM14.6667 5.33334C11.7333 5.33334 9.33333 7.73334 9.33333 10.6667C9.33333 13.6 11.7333 16 14.6667 16C17.6 16 20 13.6 20 10.6667C20 7.73334 17.6 5.33334 14.6667 5.33334ZM14.6667 18.6667C8.8 18.6667 4 21.0667 4 24V26.6667H16.6667C16.2667 25.6 16 24.5333 16 23.3333C16 21.7333 16.4 20.2667 17.2 18.8C16.4 18.8 15.6 18.6667 14.6667 18.6667Z" fill="white"/>
</svg>
