<svg width="118" height="118" viewBox="0 0 118 118" fill="none" xmlns="http://www.w3.org/2000/svg">
<path fill-rule="evenodd" clip-rule="evenodd" d="M39.3333 34.4167C39.3333 29.2007 41.4053 24.1984 45.0936 20.5102C48.7818 16.822 53.7841 14.75 59 14.75C64.2159 14.75 69.2182 16.822 72.9064 20.5102C76.5946 24.1984 78.6667 29.2007 78.6667 34.4167C78.6667 39.6326 76.5946 44.6349 72.9064 48.3231C69.2182 52.0113 64.2159 54.0833 59 54.0833C53.7841 54.0833 48.7818 52.0113 45.0936 48.3231C41.4053 44.6349 39.3333 39.6326 39.3333 34.4167ZM39.3333 63.9167C32.8134 63.9167 26.5606 66.5067 21.9503 71.117C17.34 75.7272 14.75 81.9801 14.75 88.5C14.75 92.4119 16.304 96.1637 19.0702 98.9298C21.8363 101.696 25.5881 103.25 29.5 103.25H88.5C92.4119 103.25 96.1637 101.696 98.9298 98.9298C101.696 96.1637 103.25 92.4119 103.25 88.5C103.25 81.9801 100.66 75.7272 96.0497 71.117C91.4394 66.5067 85.1866 63.9167 78.6667 63.9167H39.3333Z" fill="#D80E0E"/>
<path fill-rule="evenodd" clip-rule="evenodd" d="M39.3333 34.4167C39.3333 29.2007 41.4053 24.1984 45.0936 20.5102C48.7818 16.822 53.7841 14.75 59 14.75C64.2159 14.75 69.2182 16.822 72.9064 20.5102C76.5946 24.1984 78.6667 29.2007 78.6667 34.4167C78.6667 39.6326 76.5946 44.6349 72.9064 48.3231C69.2182 52.0113 64.2159 54.0833 59 54.0833C53.7841 54.0833 48.7818 52.0113 45.0936 48.3231C41.4053 44.6349 39.3333 39.6326 39.3333 34.4167ZM39.3333 63.9167C32.8134 63.9167 26.5606 66.5067 21.9503 71.117C17.34 75.7272 14.75 81.9801 14.75 88.5C14.75 92.4119 16.304 96.1637 19.0702 98.9298C21.8363 101.696 25.5881 103.25 29.5 103.25H88.5C92.4119 103.25 96.1637 101.696 98.9298 98.9298C101.696 96.1637 103.25 92.4119 103.25 88.5C103.25 81.9801 100.66 75.7272 96.0497 71.117C91.4394 66.5067 85.1866 63.9167 78.6667 63.9167H39.3333Z" fill="black" fill-opacity="0.2"/>
<path fill-rule="evenodd" clip-rule="evenodd" d="M39.3333 34.4167C39.3333 29.2007 41.4053 24.1984 45.0936 20.5102C48.7818 16.822 53.7841 14.75 59 14.75C64.2159 14.75 69.2182 16.822 72.9064 20.5102C76.5946 24.1984 78.6667 29.2007 78.6667 34.4167C78.6667 39.6326 76.5946 44.6349 72.9064 48.3231C69.2182 52.0113 64.2159 54.0833 59 54.0833C53.7841 54.0833 48.7818 52.0113 45.0936 48.3231C41.4053 44.6349 39.3333 39.6326 39.3333 34.4167ZM39.3333 63.9167C32.8134 63.9167 26.5606 66.5067 21.9503 71.117C17.34 75.7272 14.75 81.9801 14.75 88.5C14.75 92.4119 16.304 96.1637 19.0702 98.9298C21.8363 101.696 25.5881 103.25 29.5 103.25H88.5C92.4119 103.25 96.1637 101.696 98.9298 98.9298C101.696 96.1637 103.25 92.4119 103.25 88.5C103.25 81.9801 100.66 75.7272 96.0497 71.117C91.4394 66.5067 85.1866 63.9167 78.6667 63.9167H39.3333Z" fill="black" fill-opacity="0.2"/>
</svg>
